<svg width="110" height="95" viewBox="0 0 110 95" fill="none" xmlns="http://www.w3.org/2000/svg">
<path d="M50.1207 21.0935L5.23066 32.7422C2.42016 33.4506 0.156139 35.8905 0.156139 38.2518L0 57.7712C0 60.0538 2.26402 62.4937 5.07452 63.2021L49.7303 74.3785C52.5408 75.0869 57.0688 75.0869 59.8793 74.2998L104.769 62.7298C107.58 62.0215 109.844 59.5815 109.844 57.2203L110 37.7008C110 35.4183 107.736 32.9784 104.925 32.27L60.2697 21.0935C57.4592 20.3852 52.9312 20.3852 50.1207 21.0935Z" fill="#FF8126"/>
<path d="M54.7268 72.9619C52.9312 72.9619 51.2136 72.8045 49.9645 72.4896L8.1973 62.4151C5.23066 61.7067 2.88857 59.1881 2.88857 56.7481L3.04471 39.1963C3.04471 36.7564 5.3868 34.2378 8.43151 33.4507L50.3549 22.9826C51.682 22.6678 53.4776 22.4316 55.4294 22.4316C57.225 22.4316 58.9425 22.5891 60.1916 22.9039L101.881 32.8997C104.847 33.6081 107.19 36.1268 107.19 38.5667L107.033 56.1185C107.033 58.5584 104.691 61.077 101.647 61.8641L59.7232 72.4109C58.396 72.7258 56.6004 72.9619 54.7268 72.9619ZM55.2733 24.0058C53.5557 24.0058 51.8382 24.1632 50.5891 24.478L8.74379 34.9461C6.47977 35.4971 4.6061 37.4648 4.52803 39.1176L4.44996 56.7481C4.44996 58.4797 6.32363 60.3687 8.58765 60.9196L50.2768 70.9155C51.4478 71.2303 53.0092 71.3877 54.7268 71.3877C56.4443 71.3877 58.1618 71.2303 59.4109 70.9155L101.334 60.4474C103.598 59.8964 105.472 57.9287 105.472 56.2759L105.628 38.7241C105.628 36.9925 103.754 35.1036 101.49 34.5526L59.7232 24.478C58.5522 24.1632 56.9908 24.0058 55.2733 24.0058Z" fill="white"/>
<path d="M43.797 46.9097C44.3435 46.831 44.8119 46.6736 45.3584 46.5162C46.5295 46.1226 47.2321 45.493 47.5444 44.7059C47.7005 44.2337 47.7786 43.8401 47.7786 43.3679C47.7786 42.266 47.2321 41.4002 46.061 40.8492C45.1242 40.377 43.8751 40.1409 42.2356 40.1409C40.0497 40.1409 38.0979 40.5344 36.3804 41.2428C35.5216 41.6363 34.819 42.1086 34.1164 42.6595C33.1796 43.4466 32.7111 44.3911 32.7111 45.2569C32.7111 46.2014 33.1796 46.831 34.1164 47.0671C34.1945 47.0671 34.4287 47.0671 34.4287 46.9097V46.7523L34.3506 46.6736C34.1945 46.5162 34.0383 46.4375 33.9603 46.3588C33.8041 46.1226 33.7261 45.8865 33.7261 45.5717C33.7261 45.0994 34.0383 44.4698 34.741 43.7614C35.4436 43.053 36.2243 42.5021 37.005 42.1086C38.5664 41.4002 40.362 41.0067 42.3137 41.0067C43.5628 41.0067 44.4997 41.1641 45.2023 41.5576C45.983 41.9511 46.3733 42.5021 46.3733 43.3679C46.3733 43.6827 46.2952 44.0762 46.1391 44.4698C45.9049 45.0994 45.4365 45.5717 44.5777 45.8865C43.9532 46.1226 43.1725 46.2801 42.3918 46.2801C42.2356 46.2801 42.0014 46.2801 41.6891 46.2801C41.6111 46.2801 41.533 46.2014 41.4549 46.2014C41.3769 46.2014 41.2988 46.1226 41.1427 46.1226C40.6742 45.9652 40.2058 46.0439 39.9716 46.3588C39.8935 46.3588 39.8155 46.4375 39.8155 46.5949C39.8155 46.9884 40.362 47.0671 40.8304 47.1458C41.3769 47.2246 41.7672 47.3033 42.0014 47.3033C42.4698 47.4607 42.9383 47.7755 43.2505 48.169C43.5628 48.5626 43.719 48.9561 43.719 49.3497C43.719 49.7432 43.6409 50.1367 43.4067 50.5303C42.9383 51.396 42.3137 52.1044 41.3769 52.6554C40.5181 53.2063 39.5813 53.5212 38.7225 53.5212C37.3172 53.5212 36.2243 52.8128 35.5216 51.4748C36.6927 50.3729 38.0199 48.8774 39.3471 46.9884C39.5032 46.7523 40.2058 46.0439 41.2207 45.0207C42.2356 43.9975 42.9383 43.3679 43.3286 43.2105C43.9532 43.1318 44.0312 42.8169 44.0312 42.5808C44.0312 42.4234 43.9532 42.1873 43.719 42.0299C43.3286 41.7937 42.7821 41.7937 42.2356 42.0299C41.533 42.266 40.2058 43.7614 38.0979 46.5162L36.3804 48.7987C35.912 49.5071 35.4436 50.058 35.1313 50.3729L34.741 48.7987C34.5067 48.0903 34.1945 47.7755 33.7261 47.7755C33.5699 47.7755 33.4138 47.7755 33.1796 47.8542C32.7111 48.0903 32.2427 48.6413 31.6182 49.6645C31.0717 50.6877 30.7594 51.5535 30.7594 52.2618C30.7594 53.0489 30.9936 53.5212 31.462 53.7573C32.0085 54.0721 33.0234 53.5999 34.5067 52.3405C35.2874 53.5999 36.6927 54.3082 38.6444 54.3082C39.9716 54.3082 41.2988 53.9934 42.5479 53.3637C43.797 52.7341 44.6558 51.947 45.1242 51.0025C45.3584 50.609 45.4365 50.1367 45.4365 49.5858C45.4365 48.7987 45.1242 48.0903 44.5777 47.5394C44.3435 47.2246 44.0312 46.9884 43.797 46.9097ZM31.8524 52.1044C31.8524 51.3173 32.3208 50.2941 33.1796 49.0348C33.2576 49.1135 33.5699 49.4284 34.1945 51.3961C32.8673 52.7341 32.3208 52.9702 32.0866 52.9702C31.9304 52.7341 31.8524 52.4192 31.8524 52.1044Z" fill="white"/>
<path d="M80.8801 47.382C80.5678 47.382 80.2555 47.5394 79.9432 47.8542C79.709 48.1691 79.4748 48.4052 79.3967 48.5626C78.7722 49.1923 77.8353 49.9794 76.6643 50.9238C74.6345 52.498 74.2442 52.3406 74.2442 52.2619C74.2442 52.0258 74.4784 51.4748 75.8836 49.9794C77.6011 48.0904 77.6011 48.0117 77.6011 47.8542C77.6011 47.6181 77.5231 47.2246 76.7424 47.2246C76.4301 47.2246 75.8836 47.4607 74.5564 49.1923C74.4003 49.4284 74.2442 49.6645 74.088 49.9006C74.0099 49.9794 73.8538 50.2155 73.6196 50.4516C73.2292 50.9238 72.7608 51.3174 72.2924 51.6322C71.5117 52.2619 70.8091 52.498 70.2626 52.498C69.7942 52.498 69.638 52.2619 69.638 51.7896C69.638 51.2387 70.0284 50.4516 70.8091 49.4284L72.1363 47.7755V47.6968C72.2143 47.5394 72.2143 47.382 71.9801 47.1459C71.824 46.9885 71.6679 46.9098 71.5117 46.9098C71.3556 46.9098 71.2775 46.9098 71.1994 46.9885L70.731 47.3033C70.4968 47.4607 70.2626 47.5394 70.1065 47.5394C69.7942 47.5394 69.7161 47.4607 69.7161 47.382L70.1065 46.8311C70.4187 46.3588 70.653 46.044 70.653 45.7291C70.653 45.3356 70.4187 45.1782 70.0284 45.1782C69.4819 45.1782 69.0916 45.8079 68.7793 46.9098C68.3109 47.7755 67.6082 48.7987 66.5153 50.0581C66.0468 50.5303 65.5784 51.0026 65.0319 51.4748C64.0951 52.2619 63.3144 52.7341 62.7679 52.7341C62.2214 52.7341 62.0653 52.498 62.0653 51.947C62.0653 51.6322 62.1434 51.3961 62.2214 51.0813C62.2995 51.0813 62.2995 51.0813 62.3776 51.0813C63.0802 51.0813 63.939 50.7664 65.11 50.0581C66.203 49.3497 66.8275 48.6413 66.8275 47.8542C66.8275 47.5394 66.7495 47.3033 66.5153 47.1459C66.2811 46.9885 66.0468 46.8311 65.6565 46.8311C64.7197 46.8311 63.7048 47.4607 62.5337 48.6413C61.753 49.4284 61.2846 50.2155 61.0504 50.8451C60.66 51.2387 60.2697 51.5535 59.9574 51.7896C59.3329 52.2619 58.7864 52.498 58.396 52.498C57.6934 52.498 57.1469 51.7896 56.8346 50.2942C57.1469 50.4516 57.5373 50.5303 58.1618 50.5303C58.7864 50.5303 59.5671 50.2942 60.2697 49.9006C61.2065 49.4284 61.753 48.72 61.9092 47.933V47.8542C61.9092 47.5394 61.753 47.2246 61.4407 46.9098C61.1285 46.5162 60.7381 46.3588 60.2697 46.3588C59.7232 46.3588 59.0206 46.5162 58.0838 46.9098C58.318 46.5949 58.6302 46.2014 59.0987 45.6504C60.4258 43.9976 60.4258 43.9189 60.4258 43.8402C60.4258 43.604 60.2697 43.3679 59.6451 43.3679C59.4109 43.3679 59.3329 43.3679 59.2548 43.4466C58.6302 43.9189 57.5373 45.3356 55.8978 47.8542C55.5855 48.4052 55.2733 48.7987 55.039 49.271C52.9312 51.8683 52.0724 52.4193 51.604 52.4193C51.5259 52.4193 51.4478 52.4193 51.3698 52.1045C51.3698 52.1045 51.3698 52.1045 51.3698 52.0257C51.3698 51.7109 51.604 51.0813 52.5408 49.7432C53.7119 47.933 53.7119 47.8543 53.7119 47.7755C53.7119 47.6181 53.6338 47.5394 53.4777 47.382C53.3215 47.2246 53.1654 47.1459 52.9312 47.1459H52.8531L52.775 46.9098C52.3066 46.5949 51.9163 46.4375 51.4478 46.4375C50.3549 46.4375 49.1058 47.1459 47.7786 48.4052C46.4514 49.7432 45.8268 50.8451 45.8268 51.8683C45.8268 52.3406 46.061 52.7341 46.4514 53.0489C46.7637 53.2851 47.154 53.4425 47.5444 53.4425C47.9347 53.4425 48.4812 53.1277 49.2619 52.4193L50.0426 51.6322V51.7109C50.0426 52.4193 50.3549 52.8915 50.9794 53.1277C51.604 53.3638 52.3847 53.0489 53.3215 52.1045C53.2434 52.2619 53.2434 52.3406 53.2434 52.4193C53.2434 52.8128 53.4776 53.1277 54.0241 53.3638L54.1803 53.4425L54.2583 53.2851C54.7268 52.4193 55.039 51.7109 55.2733 51.3961C55.9759 52.8128 56.8346 53.5212 57.8495 53.5212C58.5522 53.5212 59.3329 53.1277 60.3478 52.4193C60.4258 52.3406 60.582 52.2619 60.66 52.1832C60.7381 52.8128 61.1285 53.2851 61.9872 53.5212C62.1434 53.5999 62.2995 53.5999 62.4556 53.5999C63.1583 53.5999 64.017 53.2064 65.0319 52.498C65.9688 51.8683 66.7495 51.0813 67.374 50.2155C67.5302 50.0581 67.6863 49.8219 67.8424 49.5858L69.0916 48.0117C69.2477 48.2478 69.4819 48.4052 69.7161 48.4839C69.4819 48.8774 69.2477 49.271 69.0135 49.8219C68.7012 50.4516 68.5451 51.0813 68.5451 51.6322C68.5451 53.1277 69.4038 53.4425 70.1845 53.4425C70.8872 53.4425 71.7459 53.0489 72.7608 52.2619C72.917 52.1832 73.0731 52.0257 73.1512 51.947C73.1512 52.0257 73.1512 52.0257 73.1512 52.1045C73.1512 52.4193 73.2292 52.6554 73.4635 52.8915C74.0099 53.5212 75.0248 53.2851 76.4301 52.1832L78.616 50.4516L78.1476 51.4748C77.6011 52.7341 76.9766 53.836 76.4301 54.6231C75.6494 55.725 74.9468 56.276 74.2442 56.276C73.8538 56.276 73.3854 55.8824 72.8389 55.174L72.5266 54.7805V55.3315C72.5266 55.8037 72.6828 56.276 72.995 56.6695C73.3073 57.063 73.7757 57.2992 74.1661 57.2992C75.4152 57.2992 76.7424 56.276 77.9915 54.2296C78.8503 52.7341 79.3967 51.6322 79.7871 50.9238C79.7871 50.8451 79.9432 50.609 80.6459 49.5858C81.5046 48.2478 81.5046 48.1691 81.5046 48.0904C81.5046 47.6181 81.2704 47.382 80.8801 47.382ZM57.6153 48.0904C58.5522 47.5394 59.3329 47.2246 59.9574 47.2246C60.0355 47.2246 60.1136 47.2246 60.1916 47.3033C60.2697 47.382 60.2697 47.382 60.2697 47.4607C60.2697 48.0117 59.8013 48.4839 58.7864 48.9562C57.9276 49.4284 57.1469 49.6645 56.6785 49.6645C56.3662 49.6645 56.2101 49.6645 56.0539 49.5858C56.2882 49.1136 56.8346 48.5626 57.6153 48.0904ZM64.2513 49.5858C63.5486 50.0581 62.9241 50.2942 62.5337 50.2942C62.9241 49.6645 63.4706 49.1136 64.1732 48.5626C64.8758 48.0117 65.2662 47.8542 65.4223 47.8542C65.6565 47.8542 65.7346 47.8542 65.7346 47.8542V47.933C65.5004 48.5626 65.0319 49.1136 64.2513 49.5858ZM46.9979 52.1045C46.9979 51.3961 47.6224 50.4516 48.8715 49.271C50.1207 48.0904 51.0575 47.5394 51.7601 47.5394C51.9163 47.5394 51.9943 47.5394 51.9943 47.6181L50.1207 50.2942C48.6373 52.2619 47.7786 52.6554 47.3102 52.6554C47.154 52.5767 46.9979 52.5767 46.9979 52.1045Z" fill="white"/>
<path d="M28.3392 16.0564C28.3392 15.9777 28.2612 15.9777 28.1831 15.9777C28.105 15.9777 28.105 15.9777 28.027 15.9777L27.4024 16.3712L26.2314 14.4822L26.3875 14.4035C26.8559 14.0887 27.1682 13.7739 27.5585 13.4591C27.8708 13.1442 28.105 12.7507 28.2612 12.3571C28.4173 11.9636 28.4954 11.4914 28.4173 11.0978C28.3392 10.6256 28.1831 10.1533 27.8708 9.68109C27.6366 9.28755 27.3243 8.97272 27.0121 8.7366C26.6998 8.50048 26.3094 8.34306 25.9191 8.26435C25.5287 8.18565 25.1384 8.18565 24.748 8.26435C24.3577 8.34306 23.9674 8.50048 23.577 8.7366C23.1086 9.05143 22.7182 9.28755 22.3279 9.60238C21.9375 9.91721 21.4691 10.1533 21.0788 10.4682C21.0007 10.4682 21.0007 10.5469 21.0007 10.6256C21.0007 10.7043 21.0007 10.7043 21.0007 10.783L21.7814 11.8849C21.8595 11.9636 21.9375 11.9636 22.0156 11.9636L22.484 11.6488L26.1533 17.3944L25.6068 17.7093C25.5287 17.7093 25.5287 17.788 25.5287 17.8667C25.5287 17.9454 25.5287 17.9454 25.5287 18.0241L26.2314 19.0473C26.2314 19.126 26.3094 19.126 26.3875 19.126H26.4656L28.8077 17.5518C28.8857 17.4731 28.8857 17.3944 28.8857 17.3157L28.3392 16.0564ZM23.8112 10.5469L24.5138 10.0746C24.67 9.99592 24.9042 9.91721 25.0603 9.8385C25.2165 9.8385 25.4507 9.8385 25.6068 9.8385C25.763 9.8385 25.9191 9.91721 26.0752 10.0746C26.2314 10.1533 26.3875 10.3107 26.4656 10.4682C26.6998 10.783 26.7779 11.0191 26.7779 11.2552C26.7779 11.4914 26.7779 11.7275 26.6217 11.8849C26.5436 12.121 26.3875 12.2784 26.1533 12.4359C25.9191 12.5933 25.6849 12.8294 25.4507 12.9868L25.3726 13.0655L23.8112 10.5469Z" fill="#605656"/>
<path d="M39.0348 10.6254C38.9567 10.6254 38.9567 10.6254 38.8786 10.6254L38.0979 10.9403L36.2243 8.65774C36.4585 8.50032 36.6146 8.2642 36.6927 8.10679C36.8488 7.87066 36.9269 7.55583 37.005 7.241C37.083 6.92617 37.083 6.61134 37.083 6.29651C37.083 5.98168 37.005 5.66685 36.8488 5.35202C36.6927 4.87978 36.4585 4.56495 36.1462 4.25012C35.8339 4.01399 35.5216 3.77787 35.2094 3.69916C34.819 3.62046 34.5067 3.54175 34.0383 3.54175C33.648 3.54175 33.2576 3.69916 32.8673 3.85658C32.3989 4.01399 31.9305 4.25012 31.462 4.40753C30.9936 4.64365 30.5252 4.80107 30.0568 5.03719C29.9787 5.03719 29.9787 5.1159 29.9787 5.1159C29.9787 5.19461 29.9787 5.19461 29.9787 5.27331L30.5252 6.45393C30.6033 6.53263 30.6813 6.61134 30.7594 6.53263L31.3059 6.29651L33.8822 12.7505L33.3357 12.9867C33.2576 12.9867 33.2576 13.0654 33.2576 13.0654C33.2576 13.1441 33.2576 13.1441 33.2576 13.2228L33.8041 14.3247C33.8041 14.4034 33.8822 14.4034 33.9603 14.4034H34.0383L36.4585 13.4589C36.5366 13.4589 36.6146 13.3015 36.5366 13.2228L36.1462 11.9635C36.1462 11.8847 36.0681 11.8847 36.0681 11.8847C35.9901 11.8847 35.9901 11.8847 35.912 11.8847L35.3655 12.1209L34.3506 9.68094L34.8971 9.44481L36.6927 11.806L36.4585 11.8847C36.3804 11.8847 36.3804 11.9635 36.3804 11.9635C36.3804 12.0422 36.3804 12.0422 36.3804 12.1209L37.005 13.2228C37.083 13.3015 37.1611 13.3802 37.2392 13.3015L39.4251 12.1996C39.5032 12.1209 39.5813 12.0422 39.5032 11.9635L39.1128 10.7041L39.0348 10.6254ZM33.8822 8.18549L33.7261 8.2642L32.7892 5.74556L33.648 5.43073C33.8041 5.35202 34.0383 5.27331 34.1945 5.27331C34.3506 5.27331 34.5067 5.27331 34.6629 5.35202C34.819 5.43073 34.9752 5.50944 35.0532 5.58814C35.2094 5.66685 35.2874 5.82427 35.3655 6.06039C35.5216 6.37522 35.5216 6.61134 35.5216 6.84746C35.4436 7.08359 35.3655 7.241 35.2874 7.39842C35.1313 7.55583 34.9752 7.71325 34.741 7.79195C34.4287 7.94937 34.1164 8.10679 33.8822 8.18549Z" fill="#605656"/>
<path d="M46.9979 7.31972L46.061 7.55585C45.983 7.55585 45.983 7.63455 45.9049 7.63455C45.9049 7.71326 45.9049 7.71326 45.9049 7.79197L46.1391 9.13L44.0312 9.60224L43.5628 7.00489L45.4365 6.53265C45.5146 6.53265 45.5926 6.37523 45.5926 6.29653L45.4365 5.35204C45.2803 5.19462 45.2803 5.19462 45.2803 5.11591C45.2023 5.11591 45.2023 5.11591 45.1242 5.11591L43.2505 5.50945L42.7821 2.9121L44.8119 2.36115L45.2023 3.54176C45.2023 3.62047 45.3584 3.69918 45.4365 3.69918L46.4514 3.46305C46.5295 3.46305 46.6075 3.30564 46.6075 3.22693L45.983 0.629583C45.983 0.550876 45.8268 0.472168 45.7488 0.472168L40.2839 1.65278C40.2058 1.65278 40.1278 1.8102 40.1278 1.8889L40.2839 3.14822C40.2839 3.22693 40.2839 3.22693 40.362 3.30564C40.44 3.30564 40.44 3.38435 40.5181 3.30564L41.1427 3.14822L42.4698 9.83837L41.8453 9.99578C41.7672 9.99578 41.7672 10.0745 41.6891 10.0745C41.6891 10.1532 41.6891 10.1532 41.6891 10.2319L42.0014 11.4912C42.0014 11.5699 42.0795 11.6486 42.1576 11.6486C42.1576 11.6486 42.1576 11.6486 42.2356 11.6486L47.7005 10.3893C47.7786 10.3893 47.7786 10.3106 47.8566 10.3106C47.8566 10.2319 47.8566 10.2319 47.8566 10.1532L47.2321 7.47714C47.2321 7.39843 47.154 7.31972 46.9979 7.31972Z" fill="#605656"/>
<path d="M59.5671 0H56.6004C56.5224 0 56.4443 0.0787075 56.4443 0.157415L54.8829 6.13919L54.0241 0.236123C54.0241 0.157415 53.9461 0.0787075 53.868 0.0787075L50.4329 0C50.3549 0 50.2768 0.0787075 50.1987 0.157415L50.1207 1.41674C50.1207 1.49544 50.1987 1.57415 50.2768 1.65286L51.2917 1.73157L51.1356 8.343H50.1987C50.1207 8.343 50.1207 8.343 50.0426 8.42171C50.0426 8.42171 49.9645 8.50041 49.9645 8.57912V9.83844C49.9645 9.91715 50.0426 9.99586 50.1207 10.0746L53.3215 10.232C53.3996 10.232 53.3996 10.232 53.4776 10.1533C53.5557 10.0746 53.5557 10.0746 53.5557 9.99586V8.73654C53.5557 8.65783 53.4776 8.57912 53.3996 8.57912H52.775L52.9312 4.32891L53.7899 9.60232C53.7899 9.68103 53.868 9.75974 53.9461 9.75974H55.2732C55.3513 9.75974 55.4294 9.68103 55.4294 9.60232L56.9908 3.85667L56.9127 8.50041H56.2881C56.2101 8.50041 56.132 8.57912 56.0539 8.65783L55.9759 9.99586C55.9759 10.0746 55.9759 10.0746 56.0539 10.1533C56.0539 10.1533 56.132 10.232 56.2101 10.232L59.0206 10.3107C59.0987 10.3107 59.0987 10.3107 59.1767 10.232C59.1767 10.232 59.2548 10.1533 59.2548 10.0746V8.73654C59.2548 8.65783 59.1767 8.57912 59.0987 8.57912H58.6302L58.8644 1.73157L59.5671 1.81027C59.6451 1.81027 59.6451 1.81027 59.7232 1.73157C59.8013 1.73157 59.8013 1.65286 59.8013 1.57415L59.8793 0.236123C59.8793 0.157415 59.8793 0.157415 59.8013 0.0787075C59.6451 0 59.5671 0 59.5671 0Z" fill="#605656"/>
<path d="M66.7495 1.49553L64.0951 0.94458C64.017 0.94458 63.8609 1.02329 63.8609 1.102L63.5486 2.36132C63.5486 2.44002 63.5486 2.44002 63.5486 2.51873C63.5486 2.59744 63.6267 2.59744 63.7048 2.59744L64.3293 2.67615L63.0021 9.20887L62.3776 9.05146C62.2995 9.05146 62.2995 9.05146 62.2214 9.05146C62.1434 9.05146 62.1434 9.13016 62.1434 9.20887L61.9092 10.4682C61.9092 10.5469 61.9872 10.7043 62.0653 10.7043L64.7977 11.2553C64.8758 11.2553 64.9539 11.1766 64.9539 11.0979L65.2661 9.91724C65.2661 9.83853 65.2661 9.83853 65.2661 9.75982C65.2661 9.68112 65.1881 9.68112 65.11 9.68112L64.3293 9.5237L65.7346 2.99098L66.5153 3.14839C66.5933 3.14839 66.5933 3.14839 66.6714 3.06968C66.7495 3.06968 66.7495 2.99098 66.7495 2.91227L66.9056 1.65295C66.9056 1.57424 66.8275 1.49553 66.7495 1.49553Z" fill="#605656"/>
<path d="M77.2108 6.45408C77.2889 6.45408 77.445 6.45408 77.445 6.29667L77.8353 5.11605C77.8353 5.03735 77.8353 4.87993 77.7573 4.87993L75.181 3.93544C75.1029 3.93544 74.9468 3.93544 74.9468 4.01415L74.4003 5.27347C74.4003 5.35218 74.4003 5.35218 74.4003 5.43088C74.4003 5.50959 74.4784 5.50959 74.4784 5.50959L75.1029 5.74571L73.8538 8.97272C73.7757 9.13014 73.6977 9.36626 73.6196 9.60238C73.5415 9.83851 73.3854 10.0746 73.3073 10.3895C73.1512 10.6256 73.0731 10.8617 72.917 11.0978C72.7608 11.334 72.6047 11.4914 72.4486 11.6488C72.2924 11.8062 72.1363 11.8849 71.9021 11.9636C71.7459 12.0423 71.5117 11.9636 71.2775 11.8849C71.1214 11.8062 70.9652 11.7275 70.8872 11.5701C70.8091 11.4127 70.731 11.2552 70.731 11.0978C70.731 10.9404 70.731 10.7043 70.731 10.4682C70.731 10.232 70.8091 9.99592 70.8872 9.83851C70.9652 9.60238 71.0433 9.44497 71.0433 9.20885C71.1214 8.97272 71.1994 8.81531 71.2775 8.65789C71.5117 7.94953 71.824 7.31987 72.0582 6.6902C72.2924 6.06054 72.6047 5.50959 72.8389 4.87993L73.4635 5.03735C73.5415 5.03735 73.5415 5.03735 73.6196 5.03735C73.6977 5.03735 73.6977 4.95864 73.6977 4.95864L74.0099 3.77803C74.0099 3.69932 74.0099 3.5419 73.8538 3.5419L71.3556 2.59741C71.2775 2.59741 71.1214 2.59741 71.1214 2.67612L70.4187 3.93544C70.4187 4.01415 70.4187 4.01415 70.4187 4.09286C70.4187 4.17156 70.4968 4.17156 70.4968 4.17156L71.1214 4.40769C70.8872 4.95864 70.653 5.50959 70.4187 6.06054C70.1845 6.6902 69.8723 7.31987 69.638 7.94953C69.56 8.18565 69.4038 8.50048 69.3258 8.89402C69.2477 9.20885 69.1696 9.60238 69.0916 9.91721C69.0135 10.3108 69.0135 10.6256 69.0135 10.9404C69.0135 11.334 69.0916 11.6488 69.1696 11.9636C69.2477 12.2784 69.4038 12.5933 69.638 12.8294C69.8723 13.0655 70.1845 13.3016 70.5749 13.4591C70.9652 13.6165 71.2775 13.6952 71.5898 13.6952C71.6679 13.6952 71.7459 13.6952 71.824 13.6952C72.2143 13.6165 72.5266 13.5378 72.917 13.3803C73.2292 13.2229 73.5415 12.9868 73.7757 12.672C74.0099 12.3571 74.2442 12.0423 74.4784 11.7275C74.7126 11.4127 74.8687 11.0191 75.0248 10.6256C75.181 10.232 75.3371 9.91721 75.4933 9.60238L76.6643 6.29667L77.2108 6.45408Z" fill="#605656"/>
<path d="M89.4677 12.2784L86.9695 10.6255C86.8914 10.5468 86.8133 10.5468 86.7353 10.6255L82.2072 14.797L84.6274 9.3662C84.7055 9.28749 84.6274 9.20879 84.5493 9.13008L81.8169 7.2411C81.7388 7.16239 81.5827 7.2411 81.5827 7.31981L80.8801 8.343C80.802 8.42171 80.802 8.57913 80.9581 8.57913L81.7388 9.20879L77.9915 14.6396L77.2889 14.1674C77.2108 14.1674 77.2108 14.0887 77.1327 14.1674C77.0547 14.1674 77.0547 14.2461 76.9766 14.2461L76.274 15.2693C76.1959 15.348 76.274 15.5054 76.352 15.5054L78.9283 17.3157C79.0064 17.3157 79.0064 17.3944 79.0845 17.3157C79.1625 17.3157 79.1625 17.237 79.2406 17.237L79.9432 16.1351C80.0213 16.0563 79.9432 15.8989 79.8652 15.8989L79.3967 15.5841L81.8169 12.0423L79.709 16.9221C79.709 17.0008 79.709 17.0795 79.7871 17.1582L80.9581 17.8666C81.0362 17.9453 81.1143 17.8666 81.1923 17.8666L85.33 14.0887L82.6757 17.9453L82.1292 17.5518C82.0511 17.4731 81.895 17.5518 81.895 17.6305L81.1143 18.7324C81.1143 18.8111 81.0362 18.8111 81.1143 18.8898C81.1143 18.9685 81.1923 18.9685 81.1923 19.0472L83.5344 20.6214H83.6125C83.6906 20.6214 83.6906 20.5427 83.7686 20.5427L84.4713 19.4408C84.5493 19.3621 84.4713 19.2046 84.3932 19.2046L84.0028 18.8898L87.9063 13.2229L88.4528 13.6164C88.5309 13.6164 88.5309 13.6951 88.6089 13.6164C88.687 13.6164 88.687 13.6164 88.7651 13.5377L89.5458 12.4358C89.5458 12.3571 89.6238 12.3571 89.5458 12.2784C89.5458 12.3571 89.4677 12.3571 89.4677 12.2784Z" fill="#605656"/>
<path d="M34.6629 76.976C34.2725 76.6612 33.8822 76.4251 33.4138 76.3464C33.0234 76.2677 32.6331 76.2677 32.2427 76.3464C31.8524 76.4251 31.462 76.5825 31.1498 76.8186C30.7594 77.0548 30.4471 77.2909 30.1348 77.6057C29.8226 77.9205 29.5103 78.1567 29.198 78.5502C28.8857 78.865 28.6515 79.1799 28.4173 79.4947C28.2612 79.7308 28.027 80.0456 27.8708 80.2818C27.7147 80.5966 27.4805 80.9114 27.3243 81.2262C27.1682 81.5411 27.0121 81.9346 26.934 82.2494C26.8559 82.643 26.7779 82.9578 26.7779 83.2726C26.7779 83.5875 26.8559 83.981 27.0121 84.2958C27.1682 84.6107 27.4024 84.9255 27.7147 85.1616C27.7928 85.2403 27.9489 85.319 28.027 85.3977C28.105 85.4765 28.1831 85.4764 28.2612 85.5552C28.2612 85.87 28.1831 86.1061 28.1831 86.4209C28.1831 86.7358 28.1831 87.1293 28.2612 87.4441C28.2612 87.5228 28.3392 87.6016 28.4173 87.6016L29.8226 87.3654C29.9006 87.3654 29.9006 87.2867 29.9787 87.2867C29.9787 87.208 29.9787 87.208 29.9787 87.1293C29.9006 86.9719 29.8226 86.7358 29.8226 86.4996C29.8226 86.3422 29.7445 86.1061 29.7445 85.9487C29.9787 85.9487 30.2129 85.87 30.3691 85.7913C30.6813 85.7126 30.9155 85.5552 31.1498 85.3977C31.384 85.2403 31.6182 85.0829 31.9304 84.8468C32.1647 84.6107 32.3989 84.4533 32.6331 84.2171C32.8673 83.981 33.0234 83.7449 33.2576 83.5088C33.4138 83.2726 33.648 83.0365 33.8041 82.8791C33.9603 82.643 34.1945 82.3282 34.3506 82.092C34.5848 81.7772 34.741 81.4624 34.8971 81.1475C35.0532 80.8327 35.2094 80.4392 35.2874 80.1243C35.3655 79.7308 35.4436 79.416 35.4436 79.0224C35.4436 78.6289 35.3655 78.3141 35.2094 77.9992C35.2094 77.527 34.9752 77.2122 34.6629 76.976ZM28.6515 83.5875C28.6515 83.5875 28.6515 83.5088 28.6515 83.5875C28.5735 83.3513 28.4954 83.2726 28.4954 83.1152C28.4954 82.9578 28.4954 82.8791 28.4954 82.7217C28.4954 82.8791 28.5735 82.9578 28.5735 83.1152C28.6515 83.2726 28.6515 83.4301 28.6515 83.5875ZM30.1348 82.4856C30.0568 82.1707 29.9787 81.9346 29.8226 81.6198C29.6664 81.3837 29.5884 81.1475 29.3542 80.9901C29.3542 80.9114 29.4322 80.9114 29.4322 80.8327L29.6664 80.5966C29.8226 80.4392 29.9787 80.203 30.1348 79.9669C30.291 79.7308 30.5252 79.4947 30.7594 79.2586C30.9936 79.0224 31.2278 78.7863 31.462 78.6289C31.6962 78.3928 31.9304 78.2354 32.1647 78.1567C32.6331 77.9205 33.0234 77.9205 33.4918 78.2354C33.648 78.3928 33.726 78.4715 33.8041 78.7076C33.8822 78.865 33.8822 79.1011 33.8041 79.3373C33.726 79.5734 33.726 79.8095 33.5699 80.0456C33.4918 80.2818 33.3357 80.5179 33.1796 80.754C33.0234 80.9901 32.8673 81.2262 32.7892 81.3837C32.6331 81.6198 32.555 81.7772 32.3989 81.8559C32.2427 82.0133 32.0866 82.2494 31.8524 82.4856C31.6182 82.7217 31.462 82.9578 31.2278 83.1939C30.9936 83.4301 30.7594 83.5875 30.5252 83.7449C30.3691 83.8236 30.291 83.9023 30.1348 83.981C30.2129 83.7449 30.2129 83.5875 30.2129 83.4301C30.2129 83.1152 30.2129 82.8004 30.1348 82.4856Z" fill="#605656"/>
<path d="M45.0461 82.8004L42.5479 81.6985C42.4698 81.6198 42.3137 81.6985 42.3137 81.7773L41.6891 82.9579C41.6891 83.0366 41.6891 83.0366 41.6891 83.1153C41.6891 83.194 41.7672 83.194 41.7672 83.194L42.3918 83.4301L40.9865 86.5784C40.9084 86.7358 40.8304 86.972 40.6742 87.2081C40.5962 87.4442 40.44 87.6803 40.2839 87.9164C40.1278 88.1526 39.9716 88.3887 39.8155 88.6248C39.6593 88.8609 39.5032 89.0183 39.269 89.1758C39.1128 89.3332 38.8786 89.4119 38.7225 89.4119C38.5664 89.4906 38.3322 89.4119 38.0979 89.3332C37.9418 89.2545 37.7857 89.1758 37.7076 89.0183C37.6295 88.8609 37.5515 88.7035 37.5515 88.5461C37.5515 88.3887 37.5515 88.1526 37.5515 87.9164C37.5515 87.6803 37.6295 87.4442 37.7076 87.2868C37.7857 87.0507 37.8637 86.8932 37.9418 86.6571C38.0199 86.421 38.0979 86.2636 38.176 86.1062C38.4883 85.4765 38.8006 84.8468 39.1128 84.2172C39.4251 83.6662 39.6593 83.0366 39.9716 82.4856L40.5962 82.7217C40.6742 82.7217 40.6742 82.7217 40.7523 82.7217C40.8304 82.7217 40.8304 82.643 40.8304 82.643L41.2207 81.4624C41.2207 81.3837 41.2207 81.2263 41.1427 81.2263L38.6444 80.1244C38.5664 80.0457 38.4102 80.1244 38.4102 80.2031L37.7857 81.3837C37.7857 81.4624 37.7857 81.4624 37.7857 81.5411C37.7857 81.6198 37.8637 81.6198 37.8637 81.6198L38.4883 81.856C38.2541 82.4069 37.9418 82.9579 37.7076 83.5088C37.3953 84.1385 37.083 84.7681 36.8488 85.3978C36.6927 85.6339 36.6146 85.9488 36.4585 86.2636C36.3023 86.5784 36.2243 86.9719 36.1462 87.2868C36.0681 87.6803 35.9901 87.9951 35.9901 88.31C35.9901 88.7035 35.9901 89.0183 36.0681 89.3332C36.1462 89.648 36.3023 89.9628 36.5366 90.199C36.7708 90.4351 37.083 90.6712 37.3953 90.8286C37.7857 90.986 38.176 91.0647 38.4883 91.0647H38.5664C38.9567 91.0647 39.3471 90.9073 39.6593 90.7499C39.9716 90.5925 40.2839 90.3564 40.5962 90.0415C40.8304 89.7267 41.1427 89.4119 41.2988 89.097C41.533 88.7822 41.6891 88.3887 41.9234 88.0739C42.0795 87.6803 42.2356 87.3655 42.3918 87.0507L43.797 83.8236L44.3435 84.0598C44.4216 84.0598 44.5777 84.0598 44.5777 83.9024L44.9681 82.7217C45.1242 82.9579 45.1242 82.8004 45.0461 82.8004Z" fill="#605656"/>
<path d="M51.7601 93.2685L51.0575 93.1111L50.9013 85.7126L51.3698 85.7913C51.4478 85.7913 51.5259 85.7126 51.604 85.6339L51.8382 84.5319C51.8382 84.4532 51.8382 84.4532 51.8382 84.3745C51.8382 84.2958 51.7601 84.2958 51.682 84.2958L48.247 83.7449C48.1689 83.7449 48.1689 83.7449 48.0908 83.7449C48.0128 83.7449 48.0128 83.8236 48.0128 83.9023L47.8566 85.0829C47.8566 85.1616 47.9347 85.319 48.0128 85.319L48.4812 85.3977L45.8268 92.0092L45.1242 91.8518C45.0461 91.8518 45.0461 91.8518 44.9681 91.8518C44.89 91.8518 44.89 91.9305 44.89 92.0092L44.7338 93.3472C44.7338 93.4259 44.8119 93.5833 44.89 93.5833L47.6224 94.1343C47.7005 94.1343 47.8566 94.0556 47.8566 93.9769L48.1689 92.7962C48.1689 92.7175 48.1689 92.7175 48.1689 92.6388C48.1689 92.5601 48.0908 92.5601 48.0128 92.5601L47.4663 92.4027L47.9347 91.0647L49.418 91.3008V92.9537L48.7935 92.7962C48.7154 92.7962 48.7154 92.7962 48.6373 92.7962C48.5593 92.7962 48.5593 92.875 48.5593 92.9537L48.4031 94.2917C48.4031 94.3704 48.4812 94.5278 48.5593 94.5278L51.2917 95.0788C51.2917 95.0788 51.2917 95.0788 51.3698 95.0788C51.4478 95.0788 51.5259 95.0001 51.5259 94.9213L51.8382 93.662C51.9163 93.4259 51.9163 93.3472 51.7601 93.2685ZM49.5742 86.7358V89.6479L48.6373 89.4905L49.5742 86.7358Z" fill="#605656"/>
<path d="M61.1285 91.6156H59.9574C59.8793 91.6156 59.8793 91.6156 59.8013 91.6943C59.8013 91.6943 59.7232 91.773 59.7232 91.8517V93.1898H57.8495L57.6934 86.4996L58.4741 86.4209C58.5522 86.4209 58.6302 86.3422 58.6302 86.1848V84.9255C58.6302 84.8468 58.5522 84.7681 58.396 84.7681L55.4294 84.8468C55.3513 84.8468 55.2732 84.9255 55.2732 85.0829V86.3422C55.2732 86.4209 55.2732 86.4209 55.3513 86.4996C55.3513 86.4996 55.4294 86.5783 55.5075 86.5783H56.132L56.2881 93.2685H55.6636C55.5855 93.2685 55.5855 93.2685 55.5075 93.3472C55.5075 93.4259 55.4294 93.4259 55.4294 93.5046L55.5075 94.8426C55.5075 94.9213 55.5855 95 55.6636 95L61.0504 94.9213C61.1285 94.9213 61.2065 94.8426 61.2065 94.6852V91.8517C61.2846 91.773 61.2065 91.6156 61.1285 91.6156Z" fill="#605656"/>
<path d="M68.0767 91.8517C67.9986 91.8517 67.9986 91.773 67.9205 91.8517L67.2179 92.0092L65.8907 85.4764L66.5153 85.319C66.5933 85.319 66.5933 85.2403 66.5933 85.2403C66.5933 85.1616 66.5933 85.1616 66.5933 85.0829L66.203 83.9023C66.203 83.8236 66.0468 83.7449 65.9688 83.7449L63.3144 84.2958C63.2363 84.2958 63.1583 84.4532 63.1583 84.5319L63.3925 85.87C63.3925 85.9487 63.4706 85.9487 63.4706 86.0274C63.5486 86.0274 63.5486 86.0274 63.6267 86.0274L64.2512 85.87L65.6565 92.4027L65.0319 92.5601C64.9539 92.5601 64.9539 92.6388 64.8758 92.6388C64.8758 92.7175 64.8758 92.7175 64.8758 92.7962L65.1881 94.0556C65.1881 94.1343 65.2661 94.213 65.3442 94.213C65.3442 94.213 65.3442 94.213 65.4223 94.213L68.1547 93.5046C68.2328 93.5046 68.3109 93.3472 68.3109 93.2685L68.0767 92.0092C68.1547 91.9305 68.0767 91.8517 68.0767 91.8517Z" fill="#605656"/>
<path d="M75.9617 89.0182C75.8836 89.0182 75.8836 89.0182 75.8055 89.0182L75.1029 89.333L72.5266 82.9577L73.2292 82.6429L73.9319 84.1383C73.9319 84.217 74.0099 84.217 74.088 84.217C74.1661 84.217 74.1661 84.217 74.2441 84.217L75.181 83.6661C75.2591 83.5874 75.3371 83.5087 75.2591 83.4299L73.9319 80.7539C73.8538 80.6752 73.7757 80.5965 73.6977 80.6752L68.6231 83.0364C68.5451 83.1151 68.467 83.1938 68.5451 83.2725L69.638 86.0273C69.638 86.106 69.7161 86.106 69.7161 86.106C69.7942 86.106 69.7942 86.106 69.8723 86.106L70.8872 85.6338C70.9652 85.6338 70.9652 85.555 70.9652 85.555C70.9652 85.4763 70.9652 85.4763 70.9652 85.3976L70.3407 83.9809L71.1214 83.5874L73.7757 89.8053L73.2292 90.0414C73.1512 90.0414 73.1512 90.1201 73.1512 90.1201C73.1512 90.1988 73.1512 90.1988 73.1512 90.2775L73.6977 91.4581C73.6977 91.5368 73.7757 91.5368 73.8538 91.5368H73.9319L76.5082 90.3562C76.5862 90.2775 76.6643 90.1988 76.5862 90.1201L76.1959 88.9395C76.0398 89.0182 75.9617 89.0182 75.9617 89.0182Z" fill="#605656"/>
<path d="M85.0958 85.0042L84.4713 83.981C84.4713 83.9023 84.3932 83.9023 84.3151 83.9023C84.2371 83.9023 84.2371 83.9023 84.159 83.9023L83.5344 84.3745L82.3634 82.7217L81.1923 77.7631L81.7388 77.2909C81.8169 77.2121 81.8169 77.1334 81.7388 76.976L80.8801 75.9528C80.802 75.8741 80.7239 75.8741 80.6459 75.9528L78.3818 77.6057C78.3038 77.6844 78.3038 77.7631 78.3038 77.8418L79.0064 78.9437C79.0064 79.0224 79.0845 79.0224 79.1625 79.0224C79.2406 79.0224 79.2406 79.0224 79.3187 79.0224L79.7871 78.7076L80.6459 81.6985L78.2257 79.8095L78.616 79.416C78.6941 79.416 78.6941 79.3373 78.6941 79.2585C78.6941 79.1798 78.6941 79.1798 78.616 79.1011L77.8354 78.1566C77.7573 78.0779 77.6792 78.0779 77.6011 78.1566L75.3371 79.8095C75.2591 79.8882 75.2591 79.9669 75.2591 80.0456L75.9617 81.1475C75.9617 81.2262 76.0398 81.2262 76.1178 81.2262C76.1959 81.2262 76.1959 81.2262 76.274 81.2262L76.8205 80.754L80.9581 83.5088L82.1292 85.1616L81.6608 85.5551C81.5827 85.5551 81.5827 85.6339 81.5827 85.7126C81.5827 85.7913 81.5827 85.7913 81.5827 85.87L82.3634 86.8932C82.3634 86.9719 82.4415 86.9719 82.5195 86.9719C82.5976 86.9719 82.5976 86.9719 82.6757 86.9719L84.9397 85.2403C85.1739 85.1616 85.1739 85.0829 85.0958 85.0042Z" fill="#605656"/>
<path d="M12.335 59.3455C12.4911 59.3455 12.6473 59.3455 12.8034 59.4242V41.0067C13.1157 40.5344 13.506 39.6686 13.506 38.7242C13.506 37.2287 12.5692 36.0481 12.5692 36.0481C12.5692 36.0481 11.6324 37.2287 11.6324 38.7242C11.6324 39.6686 12.0227 40.5344 12.335 41.0067V42.5808C12.1789 42.1086 11.9446 41.4789 11.4762 40.928C10.4613 39.8261 8.978 39.5899 8.978 39.5899C8.978 39.5899 9.05607 41.0854 10.071 42.1873C10.8517 43.0531 11.9446 43.3679 12.335 43.4466V45.4143C12.1789 44.942 11.9446 44.2337 11.4762 43.7614C10.4613 42.6595 8.978 42.4234 8.978 42.4234C8.978 42.4234 9.05607 43.9189 10.071 45.0208C10.8517 45.8865 11.9446 46.2014 12.335 46.2801V48.2478C12.1789 47.7755 11.9446 47.0672 11.4762 46.5949C10.4613 45.493 8.978 45.2569 8.978 45.2569C8.978 45.2569 9.05607 46.7523 10.071 47.8542C10.8517 48.72 11.9446 49.0348 12.335 49.1136V51.0812C12.1789 50.609 11.9446 49.9006 11.4762 49.4284C10.4613 48.3265 8.978 48.0904 8.978 48.0904C8.978 48.0904 9.05607 49.5858 10.071 50.6877C10.8517 51.5535 11.9446 51.8683 12.335 51.947V53.9147C12.1789 53.4425 11.9446 52.7341 11.4762 52.2619C10.4613 51.1599 8.978 50.9238 8.978 50.9238C8.978 50.9238 9.05607 52.4193 10.071 53.5212C10.8517 54.387 11.9446 54.7018 12.335 54.7805V56.6695C12.1789 56.1972 11.9446 55.4889 11.4762 55.0166C10.4613 53.9147 8.978 53.6786 8.978 53.6786C8.978 53.6786 9.05607 55.174 10.071 56.2759C10.8517 57.1417 11.9446 57.4565 12.335 57.5353V59.3455Z" fill="white"/>
<path d="M15.3016 56.3547C16.3165 55.2528 16.3946 53.7573 16.3946 53.7573C16.3946 53.7573 14.9113 53.9934 13.8964 55.0954C12.8815 56.1973 12.8034 57.6927 12.8034 57.6927C12.8034 57.6927 14.3648 57.3779 15.3016 56.3547Z" fill="white"/>
<path d="M15.3016 53.5212C16.3165 52.4193 16.3946 50.9238 16.3946 50.9238C16.3946 50.9238 14.9113 51.16 13.8964 52.2619C12.8815 53.3638 12.8034 54.8592 12.8034 54.8592C12.8034 54.8592 14.3648 54.5444 15.3016 53.5212Z" fill="white"/>
<path d="M15.3016 50.6877C16.3165 49.5858 16.3946 48.0903 16.3946 48.0903C16.3946 48.0903 14.9113 48.3265 13.8964 49.4284C12.8815 50.5303 12.8034 52.0257 12.8034 52.0257C12.8034 52.0257 14.3648 51.7109 15.3016 50.6877Z" fill="white"/>
<path d="M15.3016 47.8542C16.3165 46.7523 16.3946 45.2568 16.3946 45.2568C16.3946 45.2568 14.9113 45.493 13.8964 46.5949C12.8815 47.6968 12.8034 49.1922 12.8034 49.1922C12.8034 49.1922 14.3648 48.9561 15.3016 47.8542Z" fill="white"/>
<path d="M15.3016 45.0207C16.3165 43.9188 16.3946 42.4233 16.3946 42.4233C16.3946 42.4233 14.9113 42.6595 13.8964 43.7614C12.8815 44.8633 12.8034 46.3587 12.8034 46.3587C12.8034 46.3587 14.3648 46.1226 15.3016 45.0207Z" fill="white"/>
<path d="M15.3016 42.1872C16.3165 41.0853 16.3946 39.5898 16.3946 39.5898C16.3946 39.5898 14.9113 39.826 13.8964 40.9279C12.8815 42.0298 12.8034 43.5252 12.8034 43.5252C12.8034 43.5252 14.3648 43.2891 15.3016 42.1872Z" fill="white"/>
<path d="M96.9624 59.3455C97.1185 59.3455 97.2747 59.3455 97.4308 59.4242V41.0067C97.7431 40.5344 98.1334 39.6686 98.1334 38.7242C98.1334 37.2287 97.1966 36.0481 97.1966 36.0481C97.1966 36.0481 96.2598 37.2287 96.2598 38.7242C96.2598 39.6686 96.6501 40.5344 96.9624 41.0067V42.5808C96.8063 42.1086 96.572 41.4789 96.1036 40.928C95.0887 39.8261 93.6054 39.5899 93.6054 39.5899C93.6054 39.5899 93.6835 41.0854 94.6984 42.1873C95.4791 43.0531 96.572 43.3679 96.9624 43.4466V45.4143C96.8063 44.942 96.572 44.2337 96.1036 43.7614C95.0887 42.6595 93.6054 42.4234 93.6054 42.4234C93.6054 42.4234 93.6835 43.9189 94.6984 45.0208C95.4791 45.8865 96.572 46.2014 96.9624 46.2801V48.2478C96.8063 47.7755 96.572 47.0672 96.1036 46.5949C95.0887 45.493 93.6054 45.2569 93.6054 45.2569C93.6054 45.2569 93.6835 46.7523 94.6984 47.8542C95.4791 48.72 96.572 49.0348 96.9624 49.1136V51.0812C96.8063 50.609 96.572 49.9006 96.1036 49.4284C95.0887 48.3265 93.6054 48.0904 93.6054 48.0904C93.6054 48.0904 93.6835 49.5858 94.6984 50.6877C95.4791 51.5535 96.572 51.8683 96.9624 51.947V53.9147C96.8063 53.4425 96.572 52.7341 96.1036 52.2619C95.0887 51.1599 93.6054 50.9238 93.6054 50.9238C93.6054 50.9238 93.6835 52.4193 94.6984 53.5212C95.4791 54.387 96.572 54.7018 96.9624 54.7805V56.6695C96.8063 56.1972 96.572 55.4889 96.1036 55.0166C95.0887 53.9147 93.6054 53.6786 93.6054 53.6786C93.6054 53.6786 93.6835 55.174 94.6984 56.2759C95.4791 57.1417 96.572 57.4565 96.9624 57.5353V59.3455Z" fill="white"/>
<path d="M99.929 56.3547C100.944 55.2528 101.022 53.7573 101.022 53.7573C101.022 53.7573 99.5387 53.9934 98.5238 55.0954C97.5089 56.1973 97.4308 57.6927 97.4308 57.6927C97.4308 57.6927 98.9922 57.3779 99.929 56.3547Z" fill="white"/>
<path d="M99.929 53.5212C100.944 52.4193 101.022 50.9238 101.022 50.9238C101.022 50.9238 99.5387 51.16 98.5238 52.2619C97.5089 53.3638 97.4308 54.8592 97.4308 54.8592C97.4308 54.8592 98.9922 54.5444 99.929 53.5212Z" fill="white"/>
<path d="M99.929 50.6877C100.944 49.5858 101.022 48.0903 101.022 48.0903C101.022 48.0903 99.5387 48.3265 98.5238 49.4284C97.5089 50.5303 97.4308 52.0257 97.4308 52.0257C97.4308 52.0257 98.9922 51.7109 99.929 50.6877Z" fill="white"/>
<path d="M99.929 47.8542C100.944 46.7523 101.022 45.2568 101.022 45.2568C101.022 45.2568 99.5387 45.493 98.5238 46.5949C97.5089 47.6968 97.4308 49.1922 97.4308 49.1922C97.4308 49.1922 98.9922 48.9561 99.929 47.8542Z" fill="white"/>
<path d="M99.929 45.0207C100.944 43.9188 101.022 42.4233 101.022 42.4233C101.022 42.4233 99.5387 42.6595 98.5238 43.7614C97.5089 44.8633 97.4308 46.3587 97.4308 46.3587C97.4308 46.3587 98.9922 46.1226 99.929 45.0207Z" fill="white"/>
<path d="M99.929 42.1872C100.944 41.0853 101.022 39.5898 101.022 39.5898C101.022 39.5898 99.5387 39.826 98.5238 40.9279C97.5089 42.0298 97.4308 43.5252 97.4308 43.5252C97.4308 43.5252 98.9922 43.2891 99.929 42.1872Z" fill="white"/>
</svg>
